<?xml version="1.0" encoding="utf-8"?>
<!-- Generator: Adobe Illustrator 16.0.0, SVG Export Plug-In . SVG Version: 6.00 Build 0)  -->
<!DOCTYPE svg PUBLIC "-//W3C//DTD SVG 1.1//EN" "http://www.w3.org/Graphics/SVG/1.1/DTD/svg11.dtd">
<svg version="1.1" id="Layer_1" xmlns="http://www.w3.org/2000/svg" xmlns:xlink="http://www.w3.org/1999/xlink" x="0px" y="0px"
	 width="1740.453px" height="800px" viewBox="0 0 1740.453 800" enable-background="new 0 0 1740.453 800" xml:space="preserve">
<g>
	<g>
		<path fill="#FFFFFF" d="M489.534,90.243c-0.833,7.472-4.153,9.132-10.792,9.132c-51.483-3.32-108.768,0.833-161.904,6.645
			c20.756,9.959,15.771,14.944,6.64,33.208c-6.64,14.117-14.112,32.381-20.756,53.97c-39.021,127.031-73.894,308.021-73.894,366.97
			c0,6.651-3.319,9.971-9.959,9.971c-20.756,0-54.803-18.264-54.803-36.539c0-62.268,16.61-168.538,38.193-266.507
			c10.797-51.478,24.076-102.122,42.345-152.772c-78.046,10.792-122.051,16.604-158.579,31.553
			c-5.813,1.66-9.964,4.979-14.117,8.299c-1.66,0.833-3.32,1.66-4.152,0.833c-12.457-0.833-26.568-57.29-24.909-73.066
			c0.833-6.64,13.29-13.285,34.873-18.264c122.879-32.381,265.687-36.533,382.758-29.061
			C477.909,35.446,491.194,71.146,489.534,90.243z"/>
		<path fill="#FFFFFF" d="M709.544,298.639c-13.284,30.721-30.722,68.914-51.478,107.107c5.813,3.32,14.111,4.98,23.248,3.32
			c26.569-4.979,50.645-32.381,82.193-90.498c7.478-13.285,27.401-2.493,19.93,10.792c-34.873,64.762-65.589,96.31-97.97,102.123
			c-14.944,2.492-28.234,0.832-39.025-5.813c-25.736,45.661-53.971,91.331-79.706,123.711c-8.3,9.96-19.924,20.757-33.214,20.757
			c-19.091,0-52.299-15.782-63.097-30.727c-7.472-9.959-6.64-29.05-4.985-45.659c-16.598,31.554-38.192,68.081-57.283,76.386
			c-25.742,0-68.082-20.757-68.082-47.325c0-85.517,10.792-193.452,33.208-272.331c2.493-7.472,6.64-12.452,14.117-12.452
			c16.604,0,42.34,9.132,53.137,16.604c9.133,5.812,0.828,18.269-0.832,25.741c-16.604,63.929-40.68,173.524-42.345,234.133
			c0,11.623,4.158,16.608,12.457,8.304c20.757-19.102,41.513-67.253,66.422-123.71c9.959-52.305,23.249-105.442,35.7-148.621
			c2.493-7.472,6.64-12.452,14.117-12.452c16.604,0,42.341,9.132,53.138,16.604c9.132,5.812,1.654,18.269-0.833,25.741
			c-23.243,66.421-53.97,180.169-57.29,239.119c0,7.466,1.666,9.958,7.478,2.48c29.889-39.847,65.59-115.4,88.839-161.893
			c1.654-29.894,13.278-68.915,42.339-112.087c5.813-8.305,17.438-9.965,26.569-4.152
			C707.052,255.466,716.184,282.035,709.544,298.639z"/>
		<path fill="#FFFFFF" d="M851.508,249.654c51.472,0,94.65,35.701,94.65,73.061c0,37.366-8.306,78.879-24.083,116.24
			c36.534-32.381,67.249-73.062,85.519-119.559c5.813-13.285,26.568-4.98,21.59,9.132
			c-26.569,64.762-71.402,117.899-129.523,154.426c-30.722,50.645-74.722,87.184-123.712,87.184
			c-59.776,0-95.477-59.776-95.477-102.954c0-82.194,42.339-190.133,112.086-226.661
			C810.821,231.385,834.898,238.03,851.508,249.654z M767.644,510.361c18.27-1.665,29.894-4.985,48.157-10.797
			c29.895-43.173,53.138-123.712,53.138-176.849c0-54.797-29.889-58.117-59.782-25.736
			c-47.325,52.305-70.568,170.204-49.812,215.036C761.831,511.188,764.324,510.361,767.644,510.361z"/>
		<path fill="#FFFFFF" d="M1096.42,249.654c51.478,0,94.645,35.701,94.645,73.061c0,37.366-8.294,78.879-24.076,116.24
			c36.539-32.381,67.255-73.062,85.519-119.559c5.812-13.285,26.568-4.98,21.595,9.132
			c-26.569,64.762-71.413,117.899-129.523,154.426c-30.727,50.645-74.727,87.184-123.712,87.184
			c-59.781,0-95.482-59.776-95.482-102.954c0-82.194,42.347-190.133,112.087-226.661
			C1055.74,231.385,1079.816,238.03,1096.42,249.654z M1012.563,510.361c18.264-1.665,29.888-4.985,48.151-10.797
			c29.895-43.173,53.138-123.712,53.138-176.849c0-54.797-29.889-58.117-59.776-25.736
			c-47.325,52.305-70.574,170.204-49.817,215.036C1006.75,511.188,1009.243,510.361,1012.563,510.361z"/>
		<path fill="#FFFFFF" d="M1251.668,232.218c16.599,0,72.229,21.589,72.229,34.874c0,1.66-0.827,2.487-1.654,4.152
			c-3.319,4.147-7.478,8.299-9.971,13.279c-9.958,17.437-19.09,41.518-28.223,71.406c16.599-30.721,35.701-60.609,55.63-88.01
			c16.599-22.416,35.7-39.021,54.792-39.021c35.7,0,68.081,44.833,68.081,72.234c0,46.493-21.583,100.463-47.325,148.615
			c39.021-29.056,74.732-70.569,98.808-130.351c5.813-13.285,26.569-4.98,21.584,9.132
			c-29.062,71.406-81.371,129.524-149.453,166.051c-32.381,44.005-70.573,75.559-99.623,75.559
			c-21.595,0-38.193-7.478-47.325-15.782c-14.944,86.356-24.914,167.717-24.914,204.255c0,6.64-2.493,9.96-9.96,9.96
			c-19.929,0-54.802-19.092-54.802-36.527C1149.541,590.894,1216.795,232.218,1251.668,232.218z M1250.003,497.898
			c-1.654,6.65-2.493,12.463-4.147,19.103c6.64-4.158,14.117-5.813,21.584-6.64c13.29-0.838,29.889-5.813,47.325-11.624
			c31.554-43.178,68.081-127.031,71.4-200.098c0-15.777-4.974-24.909-12.451-24.076c-4.146,0-9.132,2.487-13.278,7.472
			C1308.125,344.304,1272.425,420.691,1250.003,497.898z"/>
		<path fill="#FFFFFF" d="M1420.212,497.898c12.451-20.756,34.035-28.223,57.284-30.715c18.264-2.493,37.366-2.493,53.138-5.813
			c-7.468-49.812-64.762-80.533-64.762-144.468c0-53.137,45.67-84.686,91.329-84.686c29.889,0,68.081,42.346,68.081,72.234
			c0,17.437-18.264,48.158-29.887,48.158c-18.265,0-44.006-12.457-44.006-20.756c0-1.666,0.827-2.493,1.665-3.325
			c14.106,0,25.73-22.417,25.73-38.193c0-9.959-4.146-18.264-13.279-18.264c-20.756,0-29.888,35.701-29.888,50.645
			c0,44.005,44.832,75.56,62.27,112.92c45.659-25.741,72.228-65.595,88.831-115.407c4.147-14.117,25.742-6.645,21.584,7.472
			c-20.756,63.097-53.959,103.783-102.949,130.351c9.971,73.065-68.908,117.061-132.843,117.061
			C1419.374,575.112,1398.617,531.117,1420.212,497.898z M1465.044,492.086c-36.527,9.132-24.914,60.615,14.117,47.325
			c23.249-8.294,44.005-31.543,50.645-53.964C1512.369,489.594,1484.136,487.113,1465.044,492.086z"/>
	</g>
</g>
</svg>
